<svg width="1200" height="400" viewBox="0 0 1200 400" xmlns="http://www.w3.org/2000/svg">
  <path d="M0,200 Q50,100 100,200 Q150,300 200,200 Q250,100 300,200 Q350,300 400,200 Q450,100 500,200 Q550,300 600,200 Q650,100 700,200 Q750,300 800,200 Q850,100 900,200 Q950,300 1000,200 Q1050,100 1100,200 Q1150,300 1200,200" 
        fill="none" 
        stroke="#36E2EC" 
        stroke-width="2" />
  <path d="M0,200 Q75,150 150,200 Q225,250 300,200 Q375,150 450,200 Q525,250 600,200 Q675,150 750,200 Q825,250 900,200 Q975,150 1050,200 Q1125,250 1200,200" 
        fill="none" 
        stroke="#DFBD69" 
        stroke-width="1.5" />
</svg>
